<svg xmlns="http://www.w3.org/2000/svg" viewBox="0 0 185.42 99.73"><style>.a{fill:#888}.b{fill:#7f7f7f}.cls-13,.cls-2,.cls-3,.cls-4,.cls-5{fill:#afafaf}.cls-3{font-size:17.95px}.cls-13,.cls-3,.cls-4,.cls-4{font-size:17.95px}.cls-5{font-size:17.95px}.cls-11,.cls-6,.cls-8,.cls-9{fill:none}.cls-11,.cls-6,.cls-7,.cls-8,.cls-9{stroke:#b2b2b2}.cls-6,.cls-9{stroke-miterlimit:10}.cls-6{stroke-width:.75px}.cls-7{fill:#0000}.cls-11,.cls-7,.cls-8{stroke-linecap:roundstroke-linejoin:round}.cls-8{stroke-width:3px}.cls-11{stroke-dasharray:1.93 2.9}.cls-12{mix-blend-mode:multiply}.cls-13{font-size:11.98px}</style><g class="cls-1"><path class="cls-2" d="m36.06 76.41h-12.65c-1.4.0-3 0-2.86-2 .13-1.73 1.73-1.42 2.89-1.43q13.06.0 26.12.0c1.18.0 2.74-.24 2.85 1.49.13 2-1.51 1.9-2.88 1.9-4.53.05-8.98.05-13.47.04z"/><path class="cls-2" d="m53.91 87.12c-2 0-4.08.0-6.11.0-1 0-1.91-.44-1.82-1.68a1.52 1.52.0 0 1 1.7-1.44q6.52-.05 13 0c1 0 2 .45 1.83 1.67s-1.1 1.42-2.12 1.42h-6.48v.03z"/><path class="cls-2" d="m33.74 99.33c-2 0-4.06.0-6.09.0-.88.0-1.66-.36-1.76-1.3s.7-1.46 1.55-1.47q6.29-.06 12.58.0c.78.0 1.71.22 1.76 1.27.05 1.32-1 1.46-2 1.48-1.98.05-4.01.02-6.04.02z"/><path class="cls-2" d="m39.2 87.15c-1.19-.06-2.71.08-2.66-1.6s1.56-1.55 2.75-1.55 2.7-.11 2.65 1.6-1.56 1.49-2.74 1.55z"/><path class="cls-2" d="m2.54 73.56c1.36.23 3.11-.23 3 1.59s-1.83 1.22-3 1.24-2.49.32-2.54-1.25c-.06-1.97 1.76-1.14 2.54-1.58z"/><path class="cls-2" d="m16.8 96.48c1 .11 2.35-.09 2.32 1.47.0 1.18-1.06 1.39-2.05 1.38s-2.32.0-2.34-1.48c-.01-1.3 1.12-1.26 2.07-1.37z"/><path class="cls-2" d="m12.92 76.44c-1.23-.11-2-.68-2-1.73.0-1.33.93-1.86 2.13-1.78a1.62 1.62.0 0 1 1.63 1.87 1.71 1.71.0 0 1-1.76 1.64z"/><path class="cls-2" d="m149.36 76.8H162c1.4.0 3 0 2.86-2-.13-1.73-1.73-1.42-2.89-1.43q-13.06.0-26.12.0c-1.18.0-2.74-.24-2.85 1.49-.13 2 1.51 1.9 2.88 1.9 4.5.05 8.99.04 13.48.04z"/><path class="cls-2" d="m131.51 87.5c2 0 4.08.0 6.11.0 1 0 1.91-.44 1.82-1.68a1.52 1.52.0 0 0-1.71-1.38q-6.52-.05-13 0c-1 0-2 .45-1.83 1.67s1.1 1.42 2.12 1.42h6.52l-.03-.03z"/><path class="cls-2" d="m151.68 99.71c2 0 4.06.0 6.09.0.88.0 1.66-.36 1.76-1.3s-.7-1.46-1.55-1.47q-6.29-.06-12.58.0c-.78.0-1.71.22-1.76 1.27-.05 1.32 1 1.46 2 1.48 1.98.06 4.01.03 6.04.02z"/><path class="cls-2" d="m146.22 87.54c1.19-.06 2.71.08 2.66-1.6s-1.56-1.54-2.75-1.53-2.7-.11-2.65 1.6 1.52 1.47 2.74 1.53z"/><path class="cls-2" d="m182.88 74c-1.36.23-3.11-.23-3 1.59s1.83 1.22 3 1.24 2.49.32 2.54-1.26c.06-2.01-1.76-1.18-2.54-1.57z"/><path class="cls-2" d="m168.62 96.87c-1 .11-2.35-.09-2.32 1.47.0 1.18 1.06 1.39 2.05 1.38s2.32.0 2.34-1.48c.01-1.3-1.12-1.24-2.07-1.37z"/><path class="cls-2" d="m172.5 76.83c1.23-.11 2-.68 2-1.73.0-1.33-.93-1.86-2.13-1.78a1.62 1.62.0 0 0-1.63 1.87 1.71 1.71.0 0 0 1.76 1.64z"/><text class="cls-3" transform="matrix(0.95 0.31 -0.31 0.95 134.5 48.15)">+</text><text class="cls-4" transform="rotate(-10 60 17)" y="17.05" x="60.6">+</text><text class="cls-5" y="40.9" x="32.21">+</text><path class="cls-6" d="M57.99 37.43 54.68 44.38 50.55 37.66 57.99 37.43z"/><path class="cls-6" d="M105.31 20.91 105.41 13.21 111.97 17.58 105.31 20.91z"/><circle class="cls-7" cx="29.13" cy="53.5" r="3.41"/><circle class="cls-7" cx="21.55" cy="86.1" r="3.41"/><circle class="cls-7" cx="78.09" cy="43.97" r="2.09" transform="rotate(-16 -2 23)"/><circle class="cls-7" cx="119.35" cy="50.83" r="2.09" transform="rotate(-16 0 33)"/><g class="a"><g class="a"><path class="st0" d="m115.915 41.909c-.697-.813-1.713-1.278-2.788-1.278h-35.426c-.581.0-1.045.465-1.045 1.045s.465 1.045 1.045 1.045h35.426c.465.0.929.203 1.22.552.29.348.436.813.377 1.278l-3.397 14.955c0 .029.0.058.0.058-.203 1.249-1.307 2.178-2.555 2.178h-24.16c-.581.0-1.045.465-1.045 1.045.0.581.465 1.045 1.045 1.045h24.16c2.294.0 4.211-1.626 4.588-3.891l3.397-14.955c0-.029.0-.058.0-.058.174-1.103-.145-2.178-.842-3.02v0z"/><path class="st0" d="m82.957 73.618c-2.671.0-4.849 2.178-4.849 4.849.0 2.672 2.178 4.849 4.849 4.849 2.672.0 4.849-2.178 4.849-4.849.0-2.671-2.178-4.849-4.849-4.849zm0 7.637c-1.539.0-2.788-1.249-2.788-2.788.0-1.539 1.249-2.788 2.788-2.788 1.539.0 2.788 1.249 2.788 2.788.0 1.539-1.249 2.788-2.788 2.788z"/><path class="st0" d="m104.503 73.618c-2.671.0-4.849 2.178-4.849 4.849.0 2.672 2.178 4.849 4.849 4.849 2.672.0 4.849-2.178 4.849-4.849.0-2.671-2.178-4.849-4.849-4.849zm0 7.637c-1.539.0-2.788-1.249-2.788-2.788.0-1.539 1.249-2.788 2.788-2.788 1.539.0 2.788 1.249 2.788 2.788.0 1.539-1.249 2.788-2.788 2.788z"/><path class="st0" d="m108.336 68.885H79.443l-2.701-10.599-5.256-22.737c-.348-1.336-1.539-2.265-2.933-2.265h-6.766c-.581.0-1.045.465-1.045 1.045s.465 1.045 1.045 1.045h6.795c.436.0.813.29.929.697l4.936 21.401c0 .087.0.174.029.232l.29 1.103v.029c0 0 0 0 0 .029l2.875 11.325c.116.465.523.784.987.784h.116 29.561c.581.0 1.045-.465 1.045-1.045s-.465-1.045-1.016-1.045v0z"/></g><g class="a"><g class="a"><path class="st1" d="m86.732 57.444c1.887-2.207 4.995-3.485 7.84-3.601 2.207-.087 4.443.436 6.359 1.481.697.377 1.684 1.045 2.12 1.51.29.29 1.074-.058.755-.377-4.646-4.646-13.532-4.24-17.8.726-.319.377.465.552.726.261v0 0z"/></g><path class="st1" d="m89.142 48.326c.145.61-.203 1.22-.726 1.394-.552.145-1.103-.203-1.249-.813-.145-.61.203-1.22.726-1.394.552-.174 1.103.203 1.249.813z"/><path class="st1" d="m103.254 48.704c.145.61-.203 1.22-.726 1.394-.552.145-1.103-.203-1.249-.813s.203-1.22.726-1.394c.552-.174 1.132.203 1.249.813z"/></g></g></g></svg>